<svg width="227" height="200" viewBox="0 0 227 200" fill="none" xmlns="http://www.w3.org/2000/svg">
<circle cx="-34.4065" cy="231.017" r="141" transform="rotate(-25.1773 -34.4065 231.017)" stroke="#9610FF" stroke-opacity="0.1" stroke-width="2"/>
<path d="M115.456 147.863C148.465 218.084 118.1 301.869 47.6229 334.999C-22.854 368.129 -106.744 338.053 -139.753 267.832C-172.763 197.611 -142.397 113.825 -71.9205 80.6953C-1.4435 47.5654 82.446 77.6417 115.456 147.863Z" stroke="#9610FF" stroke-opacity="0.1" stroke-width="2"/>
<path d="M129.997 120.032C163.007 190.253 132.642 274.039 62.1647 307.169C-8.31227 340.298 -92.2018 310.222 -125.211 240.001C-158.221 169.78 -127.856 85.9947 -57.3787 52.8649C13.0982 19.735 96.9878 49.8113 129.997 120.032Z" stroke="#9610FF" stroke-opacity="0.1" stroke-width="2"/>
<circle cx="12.4138" cy="144.919" r="141" transform="rotate(-25.1773 12.4138 144.919)" stroke="#9610FF" stroke-opacity="0.1" stroke-width="2"/>
</svg>
