<svg width="30" height="28" viewBox="0 0 30 28" fill="none" xmlns="http://www.w3.org/2000/svg">
<path id="Vector" d="M12.8457 0L11.7229 0.380838C12.8791 3.86798 13.4385 7.57578 13.2694 11.5725L13.214 12.8875L14.2298 12.0677C17.2216 9.65599 19.4149 6.53725 20.7111 2.69621L19.5903 2.30729C18.5105 5.50692 16.7971 8.1386 14.4794 10.2756C14.4893 6.64155 13.9145 3.2235 12.8458 6.41114e-05L12.8457 0ZM2.12677 0.521255C1.95429 7.5498 5.68911 12.9032 11.9447 14.7477C12.1077 7.68515 8.45037 2.32839 2.12677 0.521255ZM23.3644 10.1672C19.6616 10.1653 16.0357 11.8314 13.004 15.0484C18.7561 18.246 25.1798 17.1272 30 11.9974C27.8346 10.77 25.586 10.1684 23.3644 10.1673L23.3644 10.1672ZM7.39405 15.0062C4.07048 15.0435 1.43126 17.082 0 20.8596C5.21735 22.9783 9.60383 21.1328 11.5783 15.8963C10.0998 15.2822 8.69452 14.9917 7.39411 15.0063L7.39405 15.0062ZM12.5882 16.2551C10.1955 21.3905 12.031 25.8149 17.3624 28C19.7568 22.8388 17.9957 18.4219 12.5881 16.2551H12.5882Z" fill="#9610FF"/>
</svg>
