<svg width="14" height="14" viewBox="0 0 14 14" fill="none" xmlns="http://www.w3.org/2000/svg">
<g id="Group">
<path id="Vector" d="M1 7C1 10.3138 3.6862 13 7 13C10.3138 13 13 10.3138 13 7C13 3.6862 10.3138 1 7 1C3.6862 1 1 3.6862 1 7Z" stroke="white" stroke-linecap="round" stroke-linejoin="round"/>
<path id="Vector_2" d="M7.59993 1.02997C7.59993 1.02997 9.39993 3.39997 9.39993 6.99997C9.39993 10.6 7.59993 12.97 7.59993 12.97M6.39993 12.97C6.39993 12.97 4.59993 10.6 4.59993 6.99997C4.59993 3.39997 6.39993 1.02997 6.39993 1.02997M1.37793 9.09997H12.6219M1.37793 4.89997H12.6219" stroke="white" stroke-linecap="round" stroke-linejoin="round"/>
</g>
</svg>
