<svg width="48" height="44" viewBox="0 0 48 44" fill="none" xmlns="http://www.w3.org/2000/svg">
<path id="Vector" d="M20.5532 0L18.7566 0.59846C20.6065 6.07825 21.5016 11.9048 21.231 18.1854L21.1423 20.2518L22.7677 18.9635C27.5545 15.1737 31.0639 10.2728 33.1378 4.2369L31.3444 3.62574C29.6168 8.65374 26.8753 12.7892 23.167 16.1473C23.1828 10.4367 22.2631 5.06549 20.5533 0.000100746L20.5532 0ZM3.40283 0.819116C3.12686 11.864 9.10258 20.2764 19.1115 23.1749C19.3723 12.0767 13.5206 3.65891 3.40283 0.819116ZM37.3831 15.9771C31.4585 15.9741 25.6572 18.5922 20.8064 23.6475C30.0098 28.6723 40.2876 26.9142 48 18.8531C44.5354 16.9242 40.9376 15.9789 37.383 15.9772L37.3831 15.9771ZM11.8305 23.5812C6.51276 23.6398 2.29002 26.8431 0 32.7793C8.34776 36.1088 15.3661 33.2088 18.5253 24.9799C16.1597 24.0148 13.9112 23.5584 11.8306 23.5813L11.8305 23.5812ZM20.1411 25.5438C16.3128 33.6136 19.2496 40.5663 27.7799 44C31.6109 35.8895 28.7931 28.9487 20.141 25.5438H20.1411Z" fill="white"/>
</svg>
