<svg width="194" height="191" viewBox="0 0 194 191" fill="none" xmlns="http://www.w3.org/2000/svg">
<circle cx="96" cy="98" r="69" fill="url(#paint0_linear_140_943)"/>
<path d="M83.2852 92.0664H76.9102C75.2194 92.0664 73.5979 92.7336 72.4024 93.9214C71.2068 95.1091 70.5352 96.72 70.5352 98.3997V120.566C70.5352 122.246 71.2068 123.857 72.4024 125.045C73.5979 126.232 75.2194 126.9 76.9102 126.9H115.16C116.851 126.9 118.472 126.232 119.668 125.045C120.864 123.857 121.535 122.246 121.535 120.566V98.3997C121.535 96.72 120.864 95.1091 119.668 93.9214C118.472 92.7336 116.851 92.0664 115.16 92.0664H108.785M83.2852 92.0664V82.5664C83.2852 79.207 84.6285 75.9852 87.0195 73.6097C89.4106 71.2342 92.6536 69.8997 96.0352 69.8997C99.4167 69.8997 102.66 71.2342 105.051 73.6097C107.442 75.9852 108.785 79.207 108.785 82.5664V92.0664M83.2852 92.0664H108.785M96.0352 104.733V114.233" stroke="white" stroke-width="2" stroke-linecap="round" stroke-linejoin="round"/>
<circle opacity="0.1" cx="168.978" cy="13.5" r="13.5" fill="#9610FF"/>
<circle opacity="0.1" cx="34.3696" cy="28.3661" r="13.5" fill="#9610FF"/>
<circle opacity="0.1" cx="182.673" cy="119.872" r="10.5" fill="#9610FF"/>
<circle opacity="0.1" cx="138.021" cy="174.336" r="5.5" fill="#9610FF"/>
<circle opacity="0.1" cx="105.674" cy="8.68561" r="5.5" fill="#9610FF"/>
<circle opacity="0.1" cx="48.2827" cy="184.954" r="5.5" fill="#9610FF"/>
<circle opacity="0.1" cx="10.5" cy="119.872" r="10.5" fill="#9610FF"/>
<defs>
<linearGradient id="paint0_linear_140_943" x1="27" y1="155.5" x2="202.786" y2="-1.22857" gradientUnits="userSpaceOnUse">
<stop stop-color="#7028E4"/>
<stop offset="1" stop-color="#E5B2CA"/>
</linearGradient>
</defs>
</svg>
