<svg width="174" height="200" viewBox="0 0 174 200" fill="none" xmlns="http://www.w3.org/2000/svg">
<circle cx="142" cy="151" r="141" stroke="#9610FF" stroke-opacity="0.1" stroke-width="2"/>
<path d="M313 139.5C313 217.093 249.875 280 172 280C94.1245 280 31 217.093 31 139.5C31 61.9073 94.1245 -1 172 -1C249.875 -1 313 61.9073 313 139.5Z" stroke="#9610FF" stroke-opacity="0.1" stroke-width="2"/>
<path d="M338 120.5C338 198.093 274.875 261 197 261C119.125 261 56 198.093 56 120.5C56 42.9073 119.125 -20 197 -20C274.875 -20 338 42.9073 338 120.5Z" stroke="#9610FF" stroke-opacity="0.1" stroke-width="2"/>
<circle cx="221" cy="93" r="141" stroke="#9610FF" stroke-opacity="0.1" stroke-width="2"/>
</svg>
