<svg width="20" height="20" viewBox="0 0 20 20" fill="none" xmlns="http://www.w3.org/2000/svg">
<path id="Vector" fill-rule="evenodd" clip-rule="evenodd" d="M9.005 3.37063e-08C7.56642 0.000155803 6.14881 0.34493 4.87084 1.00546C3.59287 1.66599 2.49173 2.62305 1.65959 3.79654C0.827457 4.97002 0.288545 6.32577 0.0879684 7.7503C-0.112608 9.17482 0.0309883 10.6267 0.506736 11.9843C0.982484 13.3419 1.77654 14.5659 2.82243 15.5536C3.86832 16.5413 5.13561 17.2641 6.51822 17.6615C7.90082 18.0589 9.3585 18.1193 10.7692 17.8376C12.18 17.556 13.5027 16.9405 14.6267 16.0426L18.3042 19.7201C18.4929 19.9024 18.7457 20.0032 19.008 20.0009C19.2704 19.9987 19.5214 19.8934 19.7069 19.7079C19.8924 19.5224 19.9977 19.2714 20 19.009C20.0022 18.7466 19.9014 18.4939 19.7191 18.3051L16.0417 14.6277C17.1004 13.3027 17.7634 11.7056 17.9544 10.0204C18.1455 8.33518 17.8568 6.63026 17.1215 5.10188C16.3863 3.5735 15.2344 2.28379 13.7985 1.38121C12.3626 0.478626 10.701 -0.000146675 9.005 3.37063e-08ZM3.00102 9.00597C3.00102 8.21752 3.15631 7.43678 3.45804 6.70835C3.75977 5.97991 4.20202 5.31804 4.75954 4.76052C5.31706 4.20299 5.97894 3.76074 6.70737 3.45902C7.43581 3.15729 8.21654 3.00199 9.005 3.00199C9.79345 3.00199 10.5742 3.15729 11.3026 3.45902C12.0311 3.76074 12.6929 4.20299 13.2505 4.76052C13.808 5.31804 14.2502 5.97991 14.552 6.70835C14.8537 7.43678 15.009 8.21752 15.009 9.00597C15.009 10.5983 14.3764 12.1255 13.2505 13.2514C12.1245 14.3774 10.5974 15.01 9.005 15.01C7.41264 15.01 5.88551 14.3774 4.75954 13.2514C3.63358 12.1255 3.00102 10.5983 3.00102 9.00597Z" fill="white"/>
</svg>
