<svg width="15" height="15" viewBox="0 0 15 15" fill="none" xmlns="http://www.w3.org/2000/svg">
<path id="Vector" fill-rule="evenodd" clip-rule="evenodd" d="M6.75375 2.52798e-08C5.67481 0.000116852 4.61161 0.258697 3.65313 0.754095C2.69465 1.24949 1.86879 1.96729 1.24469 2.8474C0.620593 3.72751 0.216409 4.74433 0.0659763 5.81272C-0.084456 6.88112 0.0232412 7.97001 0.380052 8.98823C0.736863 10.0065 1.3324 10.9244 2.11682 11.6652C2.90124 12.406 3.85171 12.9481 4.88866 13.2461C5.92562 13.5442 7.01888 13.5895 8.07693 13.3782C9.13498 13.167 10.127 12.7054 10.97 12.032L13.7281 14.7901C13.8697 14.9268 14.0592 15.0024 14.256 15.0007C14.4528 14.999 14.641 14.9201 14.7802 14.7809C14.9193 14.6418 14.9983 14.4535 15 14.2568C15.0017 14.06 14.926 13.8704 14.7893 13.7289L12.0312 10.9708C12.8253 9.97701 13.3225 8.77924 13.4658 7.51531C13.6091 6.25139 13.3926 4.97269 12.8412 3.82641C12.2897 2.68012 11.4258 1.71284 10.3489 1.03591C9.27197 0.358969 8.02577 -0.000110006 6.75375 2.52798e-08ZM2.25076 6.75448C2.25076 6.16314 2.36724 5.57759 2.59353 5.03126C2.81983 4.48493 3.15152 3.98853 3.56966 3.57039C3.9878 3.15225 4.4842 2.82056 5.03053 2.59426C5.57686 2.36797 6.16241 2.25149 6.75375 2.25149C7.34509 2.25149 7.93064 2.36797 8.47697 2.59426C9.02329 2.82056 9.5197 3.15225 9.93784 3.57039C10.356 3.98853 10.6877 4.48493 10.914 5.03126C11.1403 5.57759 11.2567 6.16314 11.2567 6.75448C11.2567 7.94874 10.7823 9.0941 9.93784 9.93857C9.09337 10.783 7.94801 11.2575 6.75375 11.2575C5.55948 11.2575 4.41413 10.783 3.56966 9.93857C2.72518 9.0941 2.25076 7.94874 2.25076 6.75448Z" fill="#CACACD"/>
</svg>
