<svg width="24" height="24" viewBox="0 0 24 24" fill="none" xmlns="http://www.w3.org/2000/svg">
<g id="ep:map-location">
<path id="Vector" d="M18.75 9.25C18.75 7.45979 18.0388 5.7429 16.773 4.47703C15.5071 3.21116 13.7902 2.5 12 2.5C10.2098 2.5 8.4929 3.21116 7.22703 4.47703C5.96116 5.7429 5.25 7.45979 5.25 9.25C5.25 12.019 7.4655 15.628 12 19.951C16.5345 15.628 18.75 12.019 18.75 9.25ZM12 22C6.4995 17.0005 3.75 12.7495 3.75 9.25C3.75 7.06196 4.61919 4.96354 6.16637 3.41637C7.71354 1.86919 9.81196 1 12 1C14.188 1 16.2865 1.86919 17.8336 3.41637C19.3808 4.96354 20.25 7.06196 20.25 9.25C20.25 12.7495 17.5005 17.0005 12 22Z" fill="#333333"/>
<path id="Vector_2" d="M12 8.5C12.3978 8.5 12.7794 8.34196 13.0607 8.06066C13.342 7.77936 13.5 7.39782 13.5 7C13.5 6.60218 13.342 6.22064 13.0607 5.93934C12.7794 5.65804 12.3978 5.5 12 5.5C11.6022 5.5 11.2206 5.65804 10.9393 5.93934C10.658 6.22064 10.5 6.60218 10.5 7C10.5 7.39782 10.658 7.77936 10.9393 8.06066C11.2206 8.34196 11.6022 8.5 12 8.5ZM12 10C11.2044 10 10.4413 9.68393 9.87868 9.12132C9.31607 8.55871 9 7.79565 9 7C9 6.20435 9.31607 5.44129 9.87868 4.87868C10.4413 4.31607 11.2044 4 12 4C12.7956 4 13.5587 4.31607 14.1213 4.87868C14.6839 5.44129 15 6.20435 15 7C15 7.79565 14.6839 8.55871 14.1213 9.12132C13.5587 9.68393 12.7956 10 12 10ZM20.1 14.5L22.5 20.5H15.75V19H8.25V20.5H1.5L3.9 14.5H20.1ZM18.4845 14.5H5.5155L3.7155 19H20.2845L18.4845 14.5Z" fill="#333333"/>
</g>
</svg>
